HIERARCHY
ROOT Pelvis
{
	OFFSET 0.000000 0.000000 0.000000
	CHANNELS 6 Xposition Yposition Zposition Zrotation Yrotation Xrotation 
	JOINT Left_hip
	{
		OFFSET 0.068973 -0.091024 -0.007589
		CHANNELS 3 Zrotation Yrotation Xrotation
		JOINT Left_knee
		{
			OFFSET 0.036482 -0.391037 -0.003979
			CHANNELS 3 Zrotation Yrotation Xrotation
			JOINT Left_ankle
			{
				OFFSET -0.012239 -0.415469 -0.043440
				CHANNELS 3 Zrotation Yrotation Xrotation
				JOINT Left_foot
				{
					OFFSET 0.023806 -0.058558 0.118702
					CHANNELS 3 Zrotation Yrotation Xrotation
					End Site
					{
						OFFSET 0.000000 0.000000 0.000000
					}
				}
			}
		}
	}
	JOINT Right_hip
	{
		OFFSET -0.066552 -0.090468 -0.003847
		CHANNELS 3 Zrotation Yrotation Xrotation
		JOINT Right_knee
		{
			OFFSET -0.042435 -0.398340 -0.006400
			CHANNELS 3 Zrotation Yrotation Xrotation
			JOINT Right_ankle
			{
				OFFSET 0.014931 -0.415421 -0.041327
				CHANNELS 3 Zrotation Yrotation Xrotation
				JOINT Right_foot
				{
					OFFSET -0.021472 -0.049410 0.121889
					CHANNELS 3 Zrotation Yrotation Xrotation
					End Site
					{
						OFFSET 0.000000 0.000000 0.000000
					}
				}
			}
		}
	}
	JOINT Spine1
	{
		OFFSET -0.002904 0.105700 -0.022855
		CHANNELS 3 Zrotation Yrotation Xrotation
		JOINT Spine2
		{
			OFFSET 0.004179 0.132554 -0.002501
			CHANNELS 3 Zrotation Yrotation Xrotation
			JOINT Spine3
			{
				OFFSET 0.001987 0.049603 0.025988
				CHANNELS 3 Zrotation Yrotation Xrotation
				JOINT Neck
				{
					OFFSET -0.003935 0.211336 -0.045638
					CHANNELS 3 Zrotation Yrotation Xrotation
					JOINT Head
					{
						OFFSET 0.003906 0.065991 0.051018
						CHANNELS 3 Zrotation Yrotation Xrotation
						End Site
						{
							OFFSET 0.000000 0.000000 0.000000
						}
					}
				}
				JOINT Left_collar
				{
					OFFSET 0.072882 0.117751 -0.036270
					CHANNELS 3 Zrotation Yrotation Xrotation
					JOINT Left_shoulder
					{
						OFFSET 0.082118 0.032630 -0.005771
						CHANNELS 3 Zrotation Yrotation Xrotation
						JOINT Left_elbow
						{
							OFFSET 0.263305 -0.015144 -0.028095
							CHANNELS 3 Zrotation Yrotation Xrotation
							JOINT Left_wrist
							{
								OFFSET 0.250741 0.010115 -0.000759
								CHANNELS 3 Zrotation Yrotation Xrotation
								JOINT Left_palm
								{
									OFFSET 0.080683 -0.009989 -0.013613
									CHANNELS 3 Zrotation Yrotation Xrotation
									End Site
									{
										OFFSET 0.000000 0.000000 0.000000
									}
								}
							}
						}
					}
				}
				JOINT Right_collar
				{
					OFFSET -0.074811 0.116132 -0.040385
					CHANNELS 3 Zrotation Yrotation Xrotation
					JOINT Right_shoulder
					{
						OFFSET -0.085089 0.032943 -0.007484
						CHANNELS 3 Zrotation Yrotation Xrotation
						JOINT Right_elbow
						{
							OFFSET -0.254763 -0.014219 -0.020321
							CHANNELS 3 Zrotation Yrotation Xrotation
							JOINT Right_wrist
							{
								OFFSET -0.256597 0.009233 -0.005063
								CHANNELS 3 Zrotation Yrotation Xrotation
								JOINT Right_palm
								{
									OFFSET -0.080528 -0.007219 -0.010379
									CHANNELS 3 Zrotation Yrotation Xrotation
									End Site
									{
										OFFSET 0.000000 0.000000 0.000000
									}
								}
							}
						}
					}
				}
			}
		}
	}
}
MOTION
Frames: 6
Frame Time: 0.100000
0.991419 0.044947 -0.055328 176.182847 16.300428 -23.080669 6.247820 6.337805 19.417464 -3.427861 -2.109094 -1.699599 -1.814505 5.694008 -3.267124 4.486894 10.945085 -6.860103 -7.690901 -2.842829 -0.090442 -0.177508 0.224596 4.720109 10.038444 -4.063172 2.545282 -7.791577 -0.889371 0.687584 -0.106467 -0.215943 4.900217 0.741988 -5.965683 15.108822 0.592129 -2.510316 -1.307896 0.759166 -0.886148 12.586662 2.341287 -2.382620 6.725871 -16.415104 -24.017947 6.526354 -46.355280 -25.476698 18.913823 1.908403 -82.218608 23.288858 12.282644 -15.017568 9.879204 -14.937307 -1.568275 -16.208948 11.153815 19.530073 5.137144 47.793993 9.303061 12.373540 -74.304566 69.677103 -63.593359 -7.402275 10.036129 -29.160628 11.923748 5.631308 -8.716934 
1.009144 0.041493 -0.025283 176.717144 21.094013 -22.073331 6.123424 6.081495 18.434861 -2.511429 -5.616736 -0.334972 -2.330894 5.883366 -2.998923 4.610225 11.296638 -8.421082 -7.897707 -2.542972 0.278581 -0.475060 1.514365 6.869248 10.523429 -8.516269 -0.057571 -11.264251 1.742609 0.446978 1.209669 -0.948879 4.898050 -0.024148 -6.285220 14.869653 0.099427 -3.677434 -1.299825 -0.313770 -2.229022 11.735417 2.952181 -1.145173 3.633785 -19.123361 -22.977674 8.579878 -39.779325 -21.029290 16.681483 -19.034858 -66.627651 43.975218 -1.417560 -13.020114 20.841168 -13.498268 -0.861079 -21.083676 10.449519 15.331863 6.776246 41.703738 -6.100743 12.929614 -52.685212 79.701385 -43.462356 -0.561970 14.168678 -33.534406 10.988249 4.138563 -8.857795 
1.030606 0.033464 0.007439 176.595535 24.722196 -21.102420 7.427860 6.760598 16.548959 -1.561988 -8.236503 2.144429 -4.430935 5.762389 -1.549602 6.653766 13.043234 -11.030986 -7.476644 -3.246610 1.505473 0.626454 1.372393 7.025585 10.994363 -11.334314 -2.473121 -14.682597 1.872879 -1.044840 3.707519 -2.216499 5.251335 -0.869245 -7.316240 14.835786 0.309964 -5.412931 -0.645474 -1.739488 -3.263916 11.939958 3.247485 2.921800 -1.014293 -21.726187 -20.095372 10.774328 -37.700877 -13.244938 14.068073 -16.347568 -51.540433 45.152691 -12.203148 -7.314897 39.570319 -12.151157 -0.092346 -29.247578 7.525843 10.282099 8.340246 39.223635 -22.390012 16.447547 96.893140 82.095486 109.979182 6.641425 19.248815 -35.421859 9.209717 2.244735 -8.725302 
1.052878 0.025770 0.035516 178.157946 24.900883 -19.406283 7.680892 7.228631 15.821939 -1.453256 -7.866667 3.083518 -6.047751 7.569435 0.450940 8.547509 10.981236 -11.886507 -6.802750 -3.755800 1.210748 0.812790 3.319723 7.510175 12.532133 -12.950202 -4.368697 -20.121277 3.499330 -3.654261 5.155529 -3.298435 5.892618 -1.281461 -8.672254 14.312809 0.316000 -6.333141 1.093342 -4.285631 -2.673979 11.182518 4.316997 7.799248 -3.975936 -22.942664 -16.380219 11.765876 -40.539608 -5.226311 8.733292 -7.722592 -38.019645 28.713092 -7.640411 -6.374077 34.016636 -12.350082 -2.273254 -27.241970 6.353643 5.336587 8.970522 39.726775 -30.824960 17.638220 100.620917 75.088086 120.857677 7.032905 16.394924 -18.096397 10.253028 4.518533 -9.468175 
1.073398 0.019280 0.057019 -179.838447 22.588692 -17.779866 7.828191 6.836072 14.627257 -2.061528 -6.497542 5.638074 -7.276933 8.940398 2.102177 9.959059 9.166617 -11.670129 -6.257707 -3.856549 0.606980 0.958303 4.611723 7.517643 13.213902 -12.042229 -4.531118 -23.155542 3.754410 -5.987992 5.473170 -3.377115 7.044398 -1.207216 -9.138596 14.136039 0.655955 -6.113455 2.038565 -6.481316 -1.123570 9.907723 4.797137 9.753919 -5.556886 -22.684187 -14.332060 11.835618 -46.054310 -2.221275 3.956454 -0.078475 -24.722757 11.884224 -4.015347 -4.631168 22.317914 -11.331608 -3.374589 -21.863779 7.589370 4.325010 9.319814 46.054511 -29.883289 16.551813 61.745041 73.366373 86.564402 8.304556 11.349133 -3.032425 10.214218 6.437342 -9.208265 
1.088985 0.014680 0.073677 -178.772351 21.609836 -17.786403 8.467227 6.698015 11.144585 -3.161833 -4.497646 13.753713 -8.004838 9.012938 2.104253 10.460438 10.364593 -11.666948 -6.025513 -3.985839 2.224701 1.223266 4.236427 6.696359 11.999391 -10.046760 -3.643527 -20.966076 2.225996 -6.717239 4.972257 -2.588357 8.514458 -0.467285 -9.203699 14.626398 1.033296 -5.637766 1.767720 -5.520688 1.294517 9.558004 3.933017 7.425527 -5.363292 -21.938464 -13.768886 12.308075 -48.297440 -3.438353 4.022307 2.471301 -20.041632 12.034239 -7.454888 -3.326683 22.711365 -8.774436 -2.482197 -20.873794 10.950001 6.088527 9.664945 54.855173 -22.911286 15.205104 20.963542 60.071712 44.348848 9.608079 6.580589 -1.876886 9.443713 6.365358 -9.129157 
